<svg width="24" height="24" viewBox="0 0 24 24" fill="none" xmlns="http://www.w3.org/2000/svg">
<g opacity="0.5" clip-path="url(#clip0_1_6775)">
<path fill-rule="evenodd" clip-rule="evenodd" d="M12.7071 15.7064C12.5195 15.8938 12.2652 15.9992 12.0001 15.9992C11.7349 15.9992 11.4806 15.8938 11.2931 15.7064L5.63606 10.0494C5.54055 9.95712 5.46437 9.84678 5.41196 9.72477C5.35955 9.60277 5.33197 9.47155 5.33081 9.33877C5.32966 9.20599 5.35496 9.07431 5.40524 8.95141C5.45552 8.82852 5.52978 8.71686 5.62367 8.62297C5.71756 8.52908 5.82921 8.45483 5.95211 8.40454C6.07501 8.35426 6.20669 8.32896 6.33947 8.33012C6.47224 8.33127 6.60347 8.35886 6.72547 8.41126C6.84747 8.46367 6.95782 8.53986 7.05006 8.63537L12.0001 13.5854L16.9501 8.63537C17.1387 8.45321 17.3913 8.35241 17.6535 8.35469C17.9157 8.35697 18.1665 8.46214 18.3519 8.64755C18.5373 8.83296 18.6425 9.08377 18.6447 9.34597C18.647 9.60816 18.5462 9.86076 18.3641 10.0494L12.7071 15.7064Z" fill="black"/>
</g>
<defs>
<clipPath id="clip0_1_6775">
<rect width="24" height="24" fill="white" transform="matrix(0 1 -1 0 24 0)"/>
</clipPath>
</defs>
</svg>
