<svg width="24" height="28" viewBox="0 0 24 28" fill="none" xmlns="http://www.w3.org/2000/svg">
<path d="M12.5 4C18.023 4 22.5 8.477 22.5 14C22.5 19.523 18.023 24 12.5 24C10.8822 24.0021 9.28829 23.6102 7.85601 22.858L3.56601 23.975C3.42266 24.0123 3.27205 24.0116 3.1291 23.9728C2.98615 23.934 2.85582 23.8585 2.75102 23.7538C2.64623 23.6491 2.57062 23.5188 2.53168 23.3759C2.49273 23.233 2.49181 23.0824 2.52901 22.939L3.64501 18.65C2.89085 17.2162 2.49782 15.6201 2.50001 14C2.50001 8.477 6.97701 4 12.5 4ZM13.752 15H9.25001L9.14801 15.007C8.9685 15.0317 8.804 15.1206 8.68492 15.2571C8.56584 15.3937 8.50024 15.5688 8.50024 15.75C8.50024 15.9312 8.56584 16.1063 8.68492 16.2429C8.804 16.3794 8.9685 16.4683 9.14801 16.493L9.25001 16.5H13.752L13.853 16.493C14.0325 16.4683 14.197 16.3794 14.3161 16.2429C14.4352 16.1063 14.5008 15.9312 14.5008 15.75C14.5008 15.5688 14.4352 15.3937 14.3161 15.2571C14.197 15.1206 14.0325 15.0317 13.853 15.007L13.752 15ZM15.75 11.5H9.25001L9.14801 11.507C8.9685 11.5317 8.804 11.6206 8.68492 11.7571C8.56584 11.8937 8.50024 12.0688 8.50024 12.25C8.50024 12.4312 8.56584 12.6063 8.68492 12.7429C8.804 12.8794 8.9685 12.9683 9.14801 12.993L9.25001 13H15.75L15.852 12.993C16.0315 12.9683 16.196 12.8794 16.3151 12.7429C16.4342 12.6063 16.4998 12.4312 16.4998 12.25C16.4998 12.0688 16.4342 11.8937 16.3151 11.7571C16.196 11.6206 16.0315 11.5317 15.852 11.507L15.75 11.5Z" fill="#929292" fill-opacity="0.5"/>
</svg>
