<svg width="30" height="29" viewBox="0 0 30 29" fill="none" xmlns="http://www.w3.org/2000/svg">
<path d="M24.6673 22.9577V12.6868C24.6673 12.4993 24.6236 12.3143 24.5398 12.1465C24.4559 11.9787 24.3341 11.8327 24.184 11.7202L15.7257 5.37643C15.5165 5.21956 15.2621 5.13477 15.0007 5.13477C14.7392 5.13477 14.4848 5.21956 14.2757 5.37643L5.81732 11.7202C5.66725 11.8327 5.54544 11.9787 5.46155 12.1465C5.37766 12.3143 5.33398 12.4993 5.33398 12.6868V22.9577C5.33398 23.2782 5.46129 23.5855 5.6879 23.8121C5.9145 24.0387 6.22185 24.166 6.54232 24.166H11.3757C11.6961 24.166 12.0035 24.0387 12.2301 23.8121C12.4567 23.5855 12.584 23.2782 12.584 22.9577V19.3327C12.584 19.0122 12.7113 18.7049 12.9379 18.4783C13.1645 18.2517 13.4718 18.1243 13.7923 18.1243H16.209C16.5295 18.1243 16.8368 18.2517 17.0634 18.4783C17.29 18.7049 17.4173 19.0122 17.4173 19.3327V22.9577C17.4173 23.2782 17.5446 23.5855 17.7712 23.8121C17.9978 24.0387 18.3052 24.166 18.6257 24.166H23.459C23.7795 24.166 24.0868 24.0387 24.3134 23.8121C24.54 23.5855 24.6673 23.2782 24.6673 22.9577Z" fill="currentColor" />
<path d="M15.001 4.5293C15.3932 4.52937 15.7751 4.65723 16.0889 4.89258L24.5469 11.2363C24.7721 11.4052 24.9552 11.6242 25.0811 11.876C25.2069 12.1276 25.2724 12.4052 25.2725 12.6865V22.958C25.2724 23.4388 25.0812 23.9002 24.7412 24.2402C24.4012 24.5802 23.9398 24.7715 23.459 24.7715H18.626C18.1452 24.7715 17.6838 24.5801 17.3438 24.2402C17.0038 23.9002 16.8126 23.4388 16.8125 22.958V19.333C16.8125 19.1731 16.7488 19.0194 16.6357 18.9062C16.5226 18.7931 16.369 18.7295 16.209 18.7295H13.792C13.6321 18.7296 13.4783 18.7932 13.3652 18.9062C13.2523 19.0194 13.1895 19.1731 13.1895 19.333V22.958C13.1894 23.4388 12.9982 23.9002 12.6582 24.2402C12.3182 24.5802 11.8568 24.7714 11.376 24.7715H6.54199C6.06119 24.7714 5.59976 24.5802 5.25977 24.2402C4.91978 23.9002 4.7286 23.4388 4.72852 22.958V12.6865C4.72857 12.4051 4.79505 12.1277 4.9209 11.876C5.04675 11.6243 5.22903 11.4052 5.4541 11.2363L13.9131 4.89258C14.2269 4.65727 14.6087 4.5293 15.001 4.5293Z" stroke="currentColor" stroke-width="1.21" stroke-linecap="round" stroke-linejoin="round"/>
</svg>
