<svg width="30" height="29" viewBox="0 0 30 29" fill="none" xmlns="http://www.w3.org/2000/svg">
<path fill-rule="evenodd" clip-rule="evenodd" d="M10.1667 8.45833C10.1667 7.17645 10.6759 5.94708 11.5823 5.04065C12.4887 4.13422 13.7181 3.625 15 3.625C16.2819 3.625 17.5113 4.13422 18.4177 5.04065C19.3241 5.94708 19.8333 7.17645 19.8333 8.45833C19.8333 9.74021 19.3241 10.9696 18.4177 11.876C17.5113 12.7824 16.2819 13.2917 15 13.2917C13.7181 13.2917 12.4887 12.7824 11.5823 11.876C10.6759 10.9696 10.1667 9.74021 10.1667 8.45833ZM10.1667 15.7083C8.56432 15.7083 7.0276 16.3449 5.89456 17.4779C4.76153 18.6109 4.125 20.1477 4.125 21.75C4.125 22.7114 4.50692 23.6334 5.18674 24.3133C5.86656 24.9931 6.78859 25.375 7.75 25.375H22.25C23.2114 25.375 24.1334 24.9931 24.8133 24.3133C25.4931 23.6334 25.875 22.7114 25.875 21.75C25.875 20.1477 25.2385 18.6109 24.1054 17.4779C22.9724 16.3449 21.4357 15.7083 19.8333 15.7083H10.1667Z" fill="#929292" fill-opacity="0.5"/>
</svg>
