<svg width="17" height="16" viewBox="0 0 17 16" fill="none" xmlns="http://www.w3.org/2000/svg">
<path d="M8.5 16L10.5 13H9.5V11H7.5V13H6.5L8.5 16ZM15.5 9V1H1.5V9H15.5ZM16.5 10H0.5V0H16.5V10Z" fill="#06C474"/>
<path d="M8.5 8C8.89397 8 9.28407 7.9224 9.64805 7.77164C10.012 7.62087 10.3427 7.3999 10.6213 7.12132C10.8999 6.84274 11.1209 6.51203 11.2716 6.14805C11.4224 5.78407 11.5 5.39397 11.5 5C11.5 4.60603 11.4224 4.21593 11.2716 3.85195C11.1209 3.48797 10.8999 3.15726 10.6213 2.87868C10.3427 2.6001 10.012 2.37913 9.64805 2.22836C9.28407 2.0776 8.89397 2 8.5 2H13.5V3H14.5V7H13.5V8H8.5ZM5.5 5C5.5 5.79565 5.81607 6.55871 6.37868 7.12132C6.94129 7.68393 7.70435 8 8.5 8H3.5V7H2.5V3H3.5V2H8.5C7.70435 2 6.94129 2.31607 6.37868 2.87868C5.81607 3.44129 5.5 4.20435 5.5 5Z" fill="#06C474"/>
</svg>
