<svg width="25" height="25" viewBox="0 0 25 25" fill="none" xmlns="http://www.w3.org/2000/svg">
<path d="M20.5 7.5V5.5C20.5 4.397 19.603 3.5 18.5 3.5H5.5C3.846 3.5 2.5 4.846 2.5 6.5V18.5C2.5 20.701 4.294 21.5 5.5 21.5H20.5C21.603 21.5 22.5 20.603 22.5 19.5V9.5C22.5 8.397 21.603 7.5 20.5 7.5ZM18.5 16.5H16.5V12.5H18.5V16.5ZM5.5 7.5C5.24252 7.48848 4.99941 7.37809 4.82128 7.19182C4.64315 7.00554 4.54373 6.75774 4.54373 6.5C4.54373 6.24226 4.64315 5.99446 4.82128 5.80818C4.99941 5.62191 5.24252 5.51152 5.5 5.5H18.5V7.5H5.5Z" fill="#FEFEFE"/>
</svg>
