<svg width="40" height="40" viewBox="0 0 40 40" fill="none" xmlns="http://www.w3.org/2000/svg">
<path d="M28.334 5.56714C30.8677 7.02995 32.9716 9.13393 34.4344 11.6676C35.8972 14.2013 36.6673 17.0754 36.6673 20.001C36.6673 22.9266 35.8972 25.8007 34.4343 28.3344C32.9715 30.868 30.8675 32.972 28.3338 34.4348C25.8001 35.8975 22.926 36.6676 20.0004 36.6676C17.0748 36.6675 14.2007 35.8974 11.667 34.4345C9.1334 32.9716 7.02947 30.8676 5.56671 28.3339C4.10395 25.8002 3.33391 22.9261 3.33398 20.0005L3.34232 19.4605C3.43566 16.5821 4.27323 13.7771 5.77338 11.3188C7.27354 8.86051 9.38507 6.83289 11.9021 5.43361C14.4192 4.03433 17.2559 3.31113 20.1357 3.33453C23.0154 3.35794 25.84 4.12713 28.334 5.56714ZM20.0007 10.0005C19.5586 10.0005 19.1347 10.1761 18.8221 10.4886C18.5096 10.8012 18.334 11.2251 18.334 11.6671C17.0079 11.6671 15.7361 12.1939 14.7984 13.1316C13.8608 14.0693 13.334 15.3411 13.334 16.6671C13.334 17.9932 13.8608 19.265 14.7984 20.2027C15.7361 21.1404 17.0079 21.6671 18.334 21.6671V25.0005C18.0576 25.0158 17.7816 24.9634 17.5301 24.8478C17.2785 24.7321 17.059 24.5569 16.8907 24.3371L16.7773 24.1688C16.5493 23.8011 16.1872 23.5364 15.7675 23.4308C15.3479 23.3252 14.9037 23.387 14.5288 23.603C14.1538 23.8191 13.8776 24.1724 13.7585 24.5884C13.6395 25.0044 13.6868 25.4504 13.8906 25.8321C14.316 26.5699 14.9228 27.1868 15.6535 27.6243C16.3841 28.0618 17.2144 28.3055 18.0656 28.3321H18.334C18.3336 28.7407 18.4833 29.1351 18.7546 29.4405C19.0259 29.7459 19.3999 29.941 19.8057 29.9888L20.0007 30.0005C20.4427 30.0005 20.8666 29.8249 21.1792 29.5123C21.4917 29.1998 21.6673 28.7758 21.6673 28.3338L21.9606 28.3255C23.26 28.2504 24.4788 27.6716 25.3582 26.7121C26.2376 25.7526 26.7082 24.488 26.67 23.1871C26.6318 21.8861 26.0878 20.6513 25.1537 19.7451C24.2195 18.8388 22.9688 18.3326 21.6673 18.3338V15.0005C22.264 14.9805 22.7857 15.2338 23.1107 15.6638L23.224 15.8321C23.452 16.1999 23.8141 16.4645 24.2338 16.5701C24.6534 16.6757 25.0976 16.614 25.4725 16.3979C25.8475 16.1819 26.1237 15.8285 26.2428 15.4125C26.3618 14.9965 26.3145 14.5505 26.1107 14.1688C25.6855 13.4307 25.0788 12.8135 24.3481 12.3757C23.6174 11.9379 22.787 11.694 21.9357 11.6671H21.6673C21.6673 11.2251 21.4917 10.8012 21.1792 10.4886C20.8666 10.1761 20.4427 10.0005 20.0007 10.0005ZM21.6673 21.6671C22.1093 21.6671 22.5333 21.8427 22.8458 22.1553C23.1584 22.4679 23.334 22.8918 23.334 23.3338C23.334 23.7758 23.1584 24.1998 22.8458 24.5123C22.5333 24.8249 22.1093 25.0005 21.6673 25.0005V21.6671ZM18.334 15.0005V18.3338C17.892 18.3338 17.468 18.1582 17.1555 17.8456C16.8429 17.5331 16.6673 17.1092 16.6673 16.6671C16.6673 16.2251 16.8429 15.8012 17.1555 15.4886C17.468 15.1761 17.892 15.0005 18.334 15.0005Z" fill="#FEFEFE"/>
</svg>
