<svg width="19" height="18" viewBox="0 0 19 18" fill="none" xmlns="http://www.w3.org/2000/svg">
<path d="M10.625 6H9.5V9.75L12.71 11.655L13.25 10.7475L10.625 9.1875V6ZM10.25 2.25C8.45979 2.25 6.7429 2.96116 5.47703 4.22703C4.21116 5.4929 3.5 7.20979 3.5 9H1.25L4.22 12.0225L7.25 9H5C5 7.60761 5.55312 6.27226 6.53769 5.28769C7.52226 4.30312 8.85761 3.75 10.25 3.75C11.6424 3.75 12.9777 4.30312 13.9623 5.28769C14.9469 6.27226 15.5 7.60761 15.5 9C15.5 10.3924 14.9469 11.7277 13.9623 12.7123C12.9777 13.6969 11.6424 14.25 10.25 14.25C8.8025 14.25 7.49 13.6575 6.545 12.705L5.48 13.77C6.10371 14.4003 6.84675 14.9001 7.66575 15.24C8.48474 15.58 9.36326 15.7533 10.25 15.75C12.0402 15.75 13.7571 15.0388 15.023 13.773C16.2888 12.5071 17 10.7902 17 9C17 7.20979 16.2888 5.4929 15.023 4.22703C13.7571 2.96116 12.0402 2.25 10.25 2.25Z" fill="#06C474"/>
</svg>
