<svg width="24" height="24" viewBox="0 0 24 24" fill="none" xmlns="http://www.w3.org/2000/svg">
<path d="M12 1.5L3 4.5V13.5C3 18.4711 7.02891 22.5 12 22.5C16.9711 22.5 21 18.4711 21 13.5V4.5L12 1.5ZM19.3125 13.5C19.3125 17.5383 16.0383 20.8125 12 20.8125C7.96172 20.8125 4.6875 17.5383 4.6875 13.5V5.76562L12 3.1875L19.3125 5.76562V13.5Z" fill="#B8B8B8"/>
<path d="M8.86869 11.1342C8.79049 11.0556 8.69754 10.9933 8.59518 10.9507C8.49281 10.9082 8.38306 10.8863 8.27221 10.8863C8.16136 10.8863 8.0516 10.9082 7.94924 10.9507C7.84688 10.9933 7.75393 11.0556 7.67572 11.1342C7.59716 11.2124 7.53483 11.3053 7.49229 11.4077C7.44975 11.5101 7.42786 11.6198 7.42786 11.7307C7.42786 11.8415 7.44975 11.9513 7.49229 12.0536C7.53483 12.156 7.59716 12.2489 7.67572 12.3271L10.7085 15.36L10.7578 15.4092C10.8317 15.4833 10.9196 15.5421 11.0163 15.5822C11.113 15.6223 11.2167 15.643 11.3214 15.643C11.4261 15.643 11.5298 15.6223 11.6265 15.5822C11.7233 15.5421 11.8111 15.4833 11.8851 15.4092L17.1234 10.1709C17.1975 10.0969 17.2563 10.0091 17.2964 9.91234C17.3365 9.81562 17.3572 9.71194 17.3572 9.60723C17.3572 9.50252 17.3365 9.39883 17.2964 9.30211C17.2563 9.20539 17.1975 9.11753 17.1234 9.04356L17.0578 8.97793C16.9838 8.90382 16.8959 8.84502 16.7992 8.80491C16.7025 8.76479 16.5988 8.74414 16.4941 8.74414C16.3894 8.74414 16.2857 8.76479 16.189 8.80491C16.0922 8.84502 16.0044 8.90382 15.9304 8.97793L11.3203 13.5857L8.86869 11.1342Z" fill="#B8B8B8"/>
</svg>
