<svg width="28" height="28" viewBox="0 0 28 28" fill="none" xmlns="http://www.w3.org/2000/svg">
<path d="M5.39064 5.5009C5.60297 4.65156 5.70914 4.22806 6.02531 3.98073C6.34264 3.7334 6.78014 3.7334 7.65514 3.7334H20.3438C21.2188 3.7334 21.6563 3.7334 21.9736 3.98073C22.2886 4.22806 22.396 4.65156 22.6083 5.5009L24.0118 11.1172C24.125 11.5699 24.1821 11.7951 24.1693 11.9794C24.1533 12.2119 24.0681 12.4342 23.9247 12.6178C23.7812 12.8014 23.586 12.9379 23.3643 13.0096C23.1893 13.0667 22.9513 13.0667 22.4741 13.0667C21.8523 13.0667 21.5408 13.0667 21.2806 13.0061C20.9199 12.922 20.5844 12.7534 20.3018 12.514C20.0192 12.2746 19.7977 11.9714 19.6555 11.6294C19.5516 11.3821 19.5015 11.0811 19.4023 10.4826C19.3743 10.3146 19.3603 10.2306 19.344 10.2084C19.3332 10.1935 19.319 10.1813 19.3025 10.1729C19.2861 10.1645 19.2679 10.1601 19.2495 10.1601C19.231 10.1601 19.2128 10.1645 19.1964 10.1729C19.18 10.1813 19.1658 10.1935 19.155 10.2084C19.1386 10.2306 19.1246 10.3134 19.0966 10.4826L19.0021 11.0531L18.9811 11.1697C18.8815 11.6942 18.6049 12.1686 18.1977 12.5139C17.7905 12.8591 17.2772 13.0542 16.7435 13.0667H16.5055C15.9511 13.0542 15.4194 12.8447 15.0055 12.4757C14.5916 12.1067 14.3226 11.6023 14.2468 11.0531L14.1523 10.4814C14.1243 10.3146 14.1103 10.2306 14.094 10.2084C14.0832 10.1935 14.069 10.1813 14.0525 10.1729C14.0361 10.1645 14.0179 10.1601 13.9995 10.1601C13.981 10.1601 13.9628 10.1645 13.9464 10.1729C13.93 10.1813 13.9158 10.1935 13.905 10.2084C13.8886 10.2306 13.8746 10.3134 13.8466 10.4826L13.7521 11.0531L13.7311 11.1697C13.6315 11.6942 13.3549 12.1686 12.9477 12.5139C12.5405 12.8591 12.0272 13.0542 11.4935 13.0667H11.2555C10.7218 13.0542 10.2085 12.8591 9.80124 12.5139C9.39402 12.1686 9.11749 11.6942 9.01781 11.1697L8.99681 11.0531L8.90231 10.4814C8.87431 10.3146 8.86031 10.2306 8.84397 10.2084C8.83316 10.1935 8.81895 10.1813 8.80253 10.1729C8.7861 10.1645 8.76792 10.1601 8.74947 10.1601C8.73103 10.1601 8.71285 10.1645 8.69642 10.1729C8.67999 10.1813 8.66579 10.1935 8.65497 10.2084C8.63864 10.2306 8.62464 10.3134 8.59664 10.4826C8.49747 11.0822 8.44731 11.3809 8.34347 11.6294C8.2014 11.9712 7.98002 12.2744 7.69764 12.5137C7.41525 12.7531 7.07997 12.9219 6.71947 13.0061C6.45814 13.0667 6.14781 13.0667 5.52481 13.0667C5.04764 13.0667 4.80964 13.0667 4.63464 13.0096C4.41293 12.9379 4.21776 12.8014 4.07428 12.6178C3.93081 12.4342 3.8456 12.2119 3.82964 11.9794C3.81797 11.7951 3.87397 11.5699 3.98714 11.1172L5.39064 5.5009Z" fill="#929292" fill-opacity="0.5"/>
<path fill-rule="evenodd" clip-rule="evenodd" d="M5.85382 13.6501C5.83398 14.1412 5.83398 14.7176 5.83398 15.4001V22.4001C5.83398 23.5002 5.83398 24.0497 6.17582 24.3916C6.51765 24.7334 7.06715 24.7334 8.16732 24.7334H11.6673V20.0667C11.6673 19.7573 11.7902 19.4606 12.009 19.2418C12.2278 19.023 12.5246 18.9001 12.834 18.9001H15.1673C15.4767 18.9001 15.7735 19.023 15.9923 19.2418C16.2111 19.4606 16.334 19.7573 16.334 20.0667V24.7334H19.834C20.9342 24.7334 21.4837 24.7334 21.8255 24.3916C22.1673 24.0497 22.1673 23.5002 22.1673 22.4001V15.4001C22.1673 14.7176 22.1673 14.1412 22.1475 13.6501C21.7217 13.6501 21.2865 13.6372 20.884 13.5439C20.2867 13.4047 19.7284 13.1328 19.2507 12.7482C18.5693 13.2966 17.7107 13.6279 16.7855 13.6489L16.6385 13.6501H16.4658C15.5671 13.6286 14.7006 13.3112 14.0007 12.7471C13.3193 13.2954 12.4607 13.6267 11.5355 13.6477L11.3885 13.6489H11.2158C10.3172 13.6278 9.45072 13.3108 8.75065 12.7471C8.27932 13.1262 7.72398 13.4004 7.11732 13.5427C6.71482 13.6361 6.27965 13.6477 5.85382 13.6489" fill="#929292" fill-opacity="0.5"/>
</svg>
