<svg width="24" height="24" viewBox="0 0 24 24" fill="none" xmlns="http://www.w3.org/2000/svg">
<path fill-rule="evenodd" clip-rule="evenodd" d="M21.6 5.99961V15.5996C21.6 16.2361 21.3472 16.8466 20.8971 17.2967C20.447 17.7468 19.8365 17.9996 19.2 17.9996H13.2L7.20002 22.7996V17.9996H4.80002C4.1635 17.9996 3.55306 17.7468 3.10297 17.2967C2.65288 16.8466 2.40002 16.2361 2.40002 15.5996V5.99961C2.40002 5.36309 2.65288 4.75264 3.10297 4.30255C3.55306 3.85247 4.1635 3.59961 4.80002 3.59961H19.2C19.8365 3.59961 20.447 3.85247 20.8971 4.30255C21.3472 4.75264 21.6 5.36309 21.6 5.99961ZM8.40002 9.59961H6.00002V11.9996H8.40002V9.59961ZM10.8 9.59961H13.2V11.9996H10.8V9.59961ZM18 9.59961H15.6V11.9996H18V9.59961Z" fill="black" fill-opacity="0.3"/>
</svg>
