<svg width="70" height="21" viewBox="0 0 70 21" fill="none" xmlns="http://www.w3.org/2000/svg">
<path d="M50.175 3.33656C50.2036 3.23937 50.2629 3.15405 50.344 3.09337C50.4251 3.0327 50.5237 2.99994 50.625 3H54.375C54.4493 3.00006 54.5224 3.01774 54.5885 3.0516C54.6545 3.08547 54.7116 3.13453 54.755 3.19477C54.7984 3.255 54.8269 3.32468 54.8381 3.39806C54.8493 3.47145 54.8429 3.54644 54.8194 3.61687L53.1507 8.625H56.7188C56.8066 8.62494 56.8926 8.64953 56.9671 8.69597C57.0416 8.74241 57.1015 8.80883 57.1401 8.88767C57.1787 8.96652 57.1944 9.05461 57.1854 9.14193C57.1763 9.22925 57.143 9.31228 57.0891 9.38156L50.5266 17.8191C50.4594 17.9059 50.3638 17.9664 50.2565 17.99C50.1492 18.0135 50.0371 17.9987 49.9396 17.948C49.8422 17.8973 49.7656 17.8141 49.7233 17.7127C49.681 17.6113 49.6757 17.4983 49.7082 17.3934L51.3966 11.9062H48.2813C48.2084 11.9063 48.1365 11.8893 48.0713 11.8567C48.0062 11.8241 47.9495 11.7768 47.9058 11.7185C47.8621 11.6601 47.8326 11.5924 47.8197 11.5207C47.8068 11.449 47.8107 11.3752 47.8313 11.3053L50.175 3.33656Z" fill="white"/>
<path d="M1.9 16C1.63333 16 1.41333 15.9467 1.24 15.84C1.08 15.7333 0.966667 15.5867 0.9 15.4C0.846667 15.2 0.846667 14.9867 0.9 14.76C0.966667 14.52 1.09333 14.2733 1.28 14.02L9.28 2.94V3.64H1.74C1.43333 3.64 1.2 3.56667 1.04 3.42C0.88 3.26 0.8 3.04 0.8 2.76C0.8 2.48 0.88 2.26667 1.04 2.12C1.2 1.97333 1.43333 1.9 1.74 1.9H10.24C10.5067 1.9 10.7267 1.95333 10.9 2.06C11.0733 2.16667 11.1867 2.31333 11.24 2.5C11.3067 2.68667 11.3067 2.9 11.24 3.14C11.1867 3.38 11.0667 3.62667 10.88 3.88L2.86 14.96V14.26H10.7C11.0067 14.26 11.24 14.3333 11.4 14.48C11.56 14.6267 11.64 14.84 11.64 15.12C11.64 15.4 11.56 15.62 11.4 15.78C11.24 15.9267 11.0067 16 10.7 16H1.9ZM18.1211 16.18C17.0544 16.18 16.1344 15.98 15.3611 15.58C14.6011 15.1667 14.0078 14.5867 13.5811 13.84C13.1678 13.08 12.9611 12.18 12.9611 11.14C12.9611 10.1267 13.1678 9.24 13.5811 8.48C13.9944 7.72 14.5611 7.12667 15.2811 6.7C16.0011 6.27333 16.8211 6.06 17.7411 6.06C18.4211 6.06 19.0278 6.17333 19.5611 6.4C20.0944 6.61333 20.5478 6.93333 20.9211 7.36C21.3078 7.77333 21.5944 8.28 21.7811 8.88C21.9811 9.48 22.0811 10.1533 22.0811 10.9C22.0811 11.1267 22.0144 11.3 21.8811 11.42C21.7478 11.5267 21.5478 11.58 21.2811 11.58H14.5611V10.34H20.7211L20.3811 10.62C20.3811 9.95333 20.2811 9.38667 20.0811 8.92C19.8944 8.45333 19.6078 8.1 19.2211 7.86C18.8478 7.60667 18.3811 7.48 17.8211 7.48C17.1944 7.48 16.6611 7.62667 16.2211 7.92C15.7944 8.21333 15.4678 8.62 15.2411 9.14C15.0144 9.66 14.9011 10.2667 14.9011 10.96V11.08C14.9011 12.2533 15.1744 13.14 15.7211 13.74C16.2811 14.3267 17.0878 14.62 18.1411 14.62C18.5411 14.62 18.9611 14.5667 19.4011 14.46C19.8544 14.3533 20.2811 14.1733 20.6811 13.92C20.9078 13.7867 21.1078 13.7267 21.2811 13.74C21.4678 13.7533 21.6144 13.8133 21.7211 13.92C21.8411 14.0267 21.9144 14.16 21.9411 14.32C21.9678 14.48 21.9411 14.6467 21.8611 14.82C21.7811 14.98 21.6411 15.1267 21.4411 15.26C20.9878 15.5667 20.4611 15.8 19.8611 15.96C19.2611 16.1067 18.6811 16.18 18.1211 16.18ZM26.3638 16.14C26.0438 16.14 25.7904 16.0533 25.6038 15.88C25.4304 15.6933 25.3438 15.44 25.3438 15.12V7.8H24.2238C23.9704 7.8 23.7704 7.73333 23.6238 7.6C23.4771 7.45333 23.4038 7.26 23.4038 7.02C23.4038 6.76667 23.4771 6.57333 23.6238 6.44C23.7704 6.30667 23.9704 6.24 24.2238 6.24H25.9238L25.3438 6.78V6.06C25.3438 4.74 25.6704 3.74667 26.3238 3.08C26.9771 2.4 27.9304 2 29.1838 1.88L29.8038 1.84C30.0304 1.81333 30.2104 1.84667 30.3438 1.94C30.4771 2.03333 30.5638 2.15333 30.6038 2.3C30.6438 2.44667 30.6438 2.6 30.6038 2.76C30.5771 2.90667 30.5104 3.04 30.4038 3.16C30.2971 3.28 30.1638 3.34667 30.0038 3.36L29.6238 3.38C28.8371 3.44667 28.2638 3.67333 27.9038 4.06C27.5438 4.43333 27.3638 5.00667 27.3638 5.78V6.56L27.0838 6.24H29.3038C29.5838 6.24 29.7904 6.30667 29.9238 6.44C30.0704 6.57333 30.1438 6.76667 30.1438 7.02C30.1438 7.26 30.0704 7.45333 29.9238 7.6C29.7904 7.73333 29.5838 7.8 29.3038 7.8H27.3638V15.12C27.3638 15.8 27.0304 16.14 26.3638 16.14ZM34.8438 16.18C33.8038 16.18 33.0171 15.88 32.4838 15.28C31.9638 14.6667 31.7038 13.7867 31.7038 12.64V2.78C31.7038 2.44667 31.7904 2.19333 31.9638 2.02C32.1371 1.84667 32.3838 1.76 32.7038 1.76C33.0238 1.76 33.2704 1.84667 33.4437 2.02C33.6304 2.19333 33.7238 2.44667 33.7238 2.78V12.52C33.7238 13.1867 33.8571 13.6867 34.1238 14.02C34.4038 14.34 34.8038 14.5 35.3238 14.5C35.4438 14.5 35.5504 14.5 35.6438 14.5C35.7371 14.4867 35.8304 14.4733 35.9238 14.46C36.0838 14.4467 36.1971 14.4933 36.2638 14.6C36.3304 14.6933 36.3638 14.8933 36.3638 15.2C36.3638 15.48 36.3038 15.7 36.1838 15.86C36.0638 16.0067 35.8704 16.1 35.6038 16.14C35.4838 16.1533 35.3571 16.16 35.2238 16.16C35.0904 16.1733 34.9638 16.18 34.8438 16.18ZM41.4697 16.18C40.7897 16.18 40.1764 16.0467 39.6297 15.78C39.0964 15.5133 38.6764 15.1533 38.3697 14.7C38.063 14.2467 37.9097 13.7333 37.9097 13.16C37.9097 12.44 38.0897 11.8733 38.4497 11.46C38.823 11.0333 39.4297 10.7333 40.2697 10.56C41.123 10.3733 42.2697 10.28 43.7097 10.28H44.6497V11.52H43.7297C42.7697 11.52 42.0097 11.5667 41.4497 11.66C40.8897 11.7533 40.4897 11.9133 40.2497 12.14C40.023 12.3533 39.9097 12.6533 39.9097 13.04C39.9097 13.5467 40.083 13.96 40.4297 14.28C40.7764 14.5867 41.2564 14.74 41.8697 14.74C42.363 14.74 42.7964 14.6267 43.1697 14.4C43.543 14.16 43.8364 13.84 44.0497 13.44C44.2764 13.04 44.3897 12.58 44.3897 12.06V9.76C44.3897 9 44.2297 8.45333 43.9097 8.12C43.5897 7.78667 43.063 7.62 42.3297 7.62C41.903 7.62 41.4564 7.67333 40.9897 7.78C40.5364 7.88667 40.063 8.06667 39.5697 8.32C39.343 8.42667 39.1497 8.46 38.9897 8.42C38.8297 8.38 38.703 8.29333 38.6097 8.16C38.5164 8.01333 38.463 7.86 38.4497 7.7C38.4497 7.52667 38.4897 7.36 38.5697 7.2C38.663 7.04 38.8164 6.92 39.0297 6.84C39.6164 6.56 40.1964 6.36 40.7697 6.24C41.343 6.12 41.883 6.06 42.3897 6.06C43.283 6.06 44.0164 6.2 44.5897 6.48C45.1764 6.76 45.6097 7.18667 45.8897 7.76C46.1697 8.33333 46.3097 9.07333 46.3097 9.98V15.12C46.3097 15.44 46.2297 15.6933 46.0697 15.88C45.9097 16.0533 45.6764 16.14 45.3697 16.14C45.0764 16.14 44.843 16.0533 44.6697 15.88C44.4964 15.6933 44.4097 15.44 44.4097 15.12V13.82H44.5897C44.483 14.3133 44.283 14.74 43.9897 15.1C43.7097 15.4467 43.3564 15.7133 42.9297 15.9C42.503 16.0867 42.0164 16.18 41.4697 16.18ZM61.3203 15.5117C61.3984 15.5117 61.4701 15.5182 61.5352 15.5312C61.7044 15.5703 61.7891 15.7266 61.7891 16H57.3164V15.5117C57.6419 15.5117 57.8958 15.4857 58.0781 15.4336C58.4688 15.3294 58.6641 14.9844 58.6641 14.3984V3.79297H57.3164V3.30469H60.5391V9.35938C60.6562 9.07292 60.819 8.79948 61.0273 8.53906C61.6654 7.79688 62.4922 7.42578 63.5078 7.42578C63.8984 7.42578 64.263 7.50391 64.6016 7.66016C65.6172 8.11589 66.125 9.09245 66.125 10.5898V15.5117H66.9648C67.056 15.5117 67.1341 15.5182 67.1992 15.5312C67.3685 15.5573 67.4531 15.7135 67.4531 16H63.1172V15.5117C63.4688 15.5117 63.7227 15.4792 63.8789 15.4141C64.1133 15.2969 64.2305 14.9583 64.2305 14.3984V10.4531C64.2305 10.1276 64.1914 9.82161 64.1133 9.53516C63.8659 8.75391 63.3581 8.36328 62.5898 8.36328C62.2904 8.36328 61.9974 8.44792 61.7109 8.61719C60.9297 9.08594 60.5391 9.91276 60.5391 11.0977V15.5117H61.3203Z" fill="white"/>
</svg>
